<?xml version="1.0" encoding="UTF-8"?>
<svg xmlns="http://www.w3.org/2000/svg" viewBox="0 0 238.11 240.94">
  <defs>
    <style>
      .cls-1 {
        opacity: .22;
      }

      .cls-1, .cls-2 {
        fill: #208bc3;
        fill-rule: evenodd;
      }

      .cls-3 {
        fill: #fff;
      }

      .cls-4 {
        font-size: 16px;
      }

      .cls-5 {
        fill: #3971b8;
      }

      .cls-5, .cls-6, .cls-7, .cls-8 {
        opacity: .1;
      }

      .cls-6 {
        stroke: #e83518;
        stroke-linejoin: round;
      }

      .cls-6, .cls-9, .cls-10 {
        fill: none;
        stroke-width: .5px;
      }

      .cls-7 {
        fill: #45b8ea;
      }

      .cls-11 {
        font-size: 7px;
      }

      .cls-11, .cls-12, .cls-13 {
        fill: #231815;
      }

      .cls-11, .cls-13 {
        font-family: SourceHanSansSC-Light-GBpc-EUC-H, 'Source Han Sans SC';
        font-weight: 300;
      }

      .cls-14 {
        letter-spacing: .01em;
      }

      .cls-15 {
        isolation: isolate;
      }

      .cls-16 {
        fill: #005aab;
      }

      .cls-12 {
        font-family: SourceHanSansSC-Regular-GBpc-EUC-H, 'Source Han Sans SC';
      }

      .cls-17 {
        letter-spacing: 0em;
      }

      .cls-9 {
        stroke: #fff;
      }

      .cls-9, .cls-10 {
        stroke-miterlimit: 10;
      }

      .cls-18 {
        font-size: 19px;
      }

      .cls-13 {
        font-size: 8px;
      }

      .cls-10 {
        stroke: #231815;
      }

      .cls-19 {
        letter-spacing: -.03em;
      }

      .cls-20 {
        mix-blend-mode: overlay;
      }

      .cls-21 {
        letter-spacing: -.01em;
      }
    </style>
  </defs>
  <g class="cls-15">
    <g id="_图层_1" data-name="图层 1">
      <rect class="cls-3" x="-87.87" y="-62.36" width="413.86" height="634.96"/>
      <path class="cls-5" d="m240.94,154.98s-73.3-3.26-111.36-1.94c-46.78,1.62-132.42,10.86-132.42,10.86v377.26h243.78V154.98Z"/>
      <path class="cls-7" d="m240.94,168.98s-59.71-3.67-111.4-2.36c-58.47,1.48-132.37,15.28-132.37,15.28v359.26h243.78V168.98Z"/>
      <rect class="cls-20" x="0" y="-.29" width="171.25" height="240.94"/>
      <g>
        <path class="cls-9" d="m-3.86,263.94c21.68-4.61,68.76-12.37,90.55-15.83,21.79-3.46,58.56-8.86,84.48-11.41"/>
        <path class="cls-9" d="m-3.85,257.02c21.66-4.65,68.78-12.49,90.57-15.97,21.78-3.48,58.55-8.89,84.46-11.45"/>
        <path class="cls-9" d="m-3.84,250.1c21.64-4.68,68.81-12.61,90.59-16.12,21.78-3.51,58.54-8.93,84.43-11.49"/>
        <path class="cls-9" d="m-3.84,243.18c21.62-4.72,68.83-12.72,90.6-16.26,21.78-3.53,58.53-8.96,84.4-11.54"/>
        <path class="cls-9" d="m-3.83,236.25c21.6-4.75,68.85-12.84,90.62-16.4s58.52-8.99,84.37-11.58"/>
        <path class="cls-9" d="m-3.82,229.33c21.57-4.79,68.87-12.95,90.64-16.54,21.77-3.58,58.51-9.03,84.34-11.62"/>
        <path class="cls-9" d="m-3.81,222.41c21.55-4.83,68.89-13.07,90.66-16.68,21.77-3.61,58.49-9.06,84.32-11.66"/>
        <path class="cls-9" d="m-3.81,215.48c21.53-4.86,68.92-13.18,90.68-16.82,21.76-3.63,58.48-9.09,84.29-11.7"/>
        <path class="cls-9" d="m-3.8,208.56c21.51-4.9,68.94-13.3,90.7-16.96s58.47-9.13,84.26-11.75"/>
        <path class="cls-9" d="m-3.79,201.64c21.49-4.93,68.96-13.42,90.72-17.1,21.76-3.68,58.46-9.16,84.23-11.79"/>
        <path class="cls-9" d="m-3.79,194.71c21.46-4.97,68.98-13.53,90.74-17.24,21.75-3.71,58.45-9.19,84.2-11.83"/>
        <path class="cls-9" d="m-3.78,187.79c21.44-5.01,69.01-13.65,90.75-17.38s58.44-9.23,84.18-11.87"/>
        <path class="cls-9" d="m-3.77,180.87c21.42-5.04,69.03-13.76,90.77-17.52,21.74-3.76,58.42-9.26,84.15-11.92"/>
        <path class="cls-9" d="m-3.76,173.95c21.4-5.08,69.05-13.88,90.79-17.66,21.74-3.78,58.41-9.29,84.12-11.96"/>
        <path class="cls-9" d="m-3.76,167.02c21.38-5.11,69.07-13.99,90.81-17.8s58.4-9.33,84.09-12"/>
      </g>
      <path id="path2518" class="cls-1" d="m83.68,88.13c-5.52,13.54-8.85,22.4-15,35.54,3.77,4,8.4,8.65,15.91,13.91-8.08-3.32-13.59-6.66-17.71-10.13-7.87,16.42-20.2,39.81-45.22,84.77,19.66-11.35,34.91-18.35,49.12-21.02-.61-2.62-.96-5.46-.93-8.42l.02-.63c.31-12.6,6.87-22.29,14.63-21.63s13.8,11.41,13.49,24.01c-.06,2.37-.33,4.65-.79,6.77,14.05,2.75,29.13,9.73,48.53,20.93-3.83-7.04-7.24-13.39-10.5-19.44-5.14-3.98-10.49-9.16-21.42-14.77,7.51,1.95,12.89,4.2,17.08,6.72-33.15-61.72-35.83-69.92-47.2-96.6Z"/>
      <line class="cls-6" x1="238.11" y1="0" x2="0" y2="0"/>
      <line class="cls-6" x1="238.11" y1="240.94" x2="0" y2="240.94"/>
      <line class="cls-6" x1="238.11" y1="240.94" x2="238.11" y2="0"/>
      <g class="cls-8">
        <path class="cls-16" d="m238.11-53.86v1.42h8.5l7.09,5.67,22.68,5.67V-11.34l-30.9,6.24-7.37,3.69V0h52.44v1.42h0c14.09,0,25.51,11.42,25.51,25.51v187.09c0,14.09-11.42,25.51-25.51,25.51h0v1.42h-52.44v1.42l7.37,3.69,30.9,6.24v29.76l-22.68,5.67-7.09,5.67h-8.5v242.36l-4.96,19.84c-1.25,5-5.74,8.51-10.9,8.51H7.09L0,535.75h-52.44v-1.42h0c-14.09,0-25.51-11.42-25.51-25.51v-187.09c0-14.09,11.42-25.51,25.51-25.51h0v-1.42H0v-1.42l-7.37-3.69-30.9-6.24v-29.76l22.68-5.67,7.09-5.67H0V-1.42h-8.5l-7.09-5.67-22.68-5.67v-29.76l30.9-6.24L0-52.44v-1.42h238.11m0-1H0c-.55,0-1,.45-1,1v.8l-6.7,3.35-30.77,6.21c-.47.09-.8.5-.8.98V-12.76c0,.46.31.86.76.97l22.47,5.62L-9.13-.64c.18.14.4.22.62.22H-1v241.78h-7.5c-.23,0-.45.08-.62.22l-6.92,5.53-22.47,5.62c-.45.11-.76.51-.76.97v29.76c0,.48.34.89.8.98l30.77,6.21,6.3,3.15h-51.04c-.55,0-1,.45-1,1v.44c-14.16.53-25.51,12.21-25.51,26.49v187.09c0,14.28,11.35,25.97,25.51,26.49v.44c0,.55.45,1,1,1H-.78l6.9,27.59c.11.45.51.76.97.76h215.17c5.62,0,10.5-3.81,11.87-9.27l4.96-19.84c.02-.08.03-.16.03-.24v-241.36h7.5c.23,0,.45-.08.62-.22l6.92-5.53,22.47-5.62c.45-.11.76-.51.76-.97v-29.76c0-.48-.34-.89-.8-.98l-30.77-6.21-6.3-3.15h51.04c.55,0,1-.45,1-1v-.44c14.16-.53,25.51-12.21,25.51-26.49V26.93c0-14.28-11.35-25.97-25.51-26.49V0c0-.55-.45-1-1-1h-51.04l6.3-3.15,30.77-6.21c.47-.09.8-.5.8-.98v-29.76c0-.46-.31-.86-.76-.97l-22.47-5.62-6.92-5.53c-.18-.14-.4-.22-.62-.22h-7.5v-.42c0-.55-.45-1-1-1h0Z"/>
      </g>
      <line class="cls-10" x1="171.25" y1="-60.5" x2="171.25" y2="572.18"/>
      <text class="cls-11" transform="translate(7.54 13.33)"><tspan x="0" y="0">请仔细阅读安装说明并在管理员指导下使用</tspan><tspan x="0" y="8.4">谨慎用于服务器安装</tspan></text>
      <text class="cls-13" transform="translate(175.56 218.57)"><tspan x="0" y="0">— Flash drive</tspan><tspan x="0" y="13">— amd64</tspan></text>
      <text class="cls-12" transform="translate(7.54 43.42)"><tspan class="cls-4"><tspan x="0" y="0">A</tspan><tspan class="cls-21" x="9.73" y="0">r</tspan><tspan x="15.76" y="0">ch®️ GN</tspan><tspan class="cls-19" x="67.38" y="0">U</tspan><tspan class="cls-17" x="78.35" y="0">/Linu</tspan><tspan class="cls-14" x="117.18" y="0">x™</tspan><tspan x="125.31" y="0">️</tspan></tspan><tspan class="cls-18"><tspan x="0" y="26">盒装安装媒介</tspan></tspan></text>
      <path id="path2518-2" data-name="path2518" class="cls-2" d="m204.68,11.34c-1.49,3.65-2.39,6.04-4.05,9.59,1.02,1.08,2.27,2.33,4.29,3.75-2.18-.9-3.67-1.8-4.78-2.73-2.12,4.43-5.45,10.74-12.2,22.87,5.3-3.06,9.42-4.95,13.25-5.67-.16-.71-.26-1.47-.25-2.27v-.17c.09-3.4,1.86-6.01,3.95-5.83s3.72,3.08,3.64,6.48c-.02.64-.09,1.25-.21,1.83,3.79.74,7.86,2.62,13.09,5.65-1.03-1.9-1.95-3.61-2.83-5.24-1.39-1.07-2.83-2.47-5.78-3.98,2.03.53,3.48,1.13,4.61,1.81-8.94-16.65-9.67-18.86-12.73-26.06Z"/>
    </g>
  </g>
</svg>