<?xml version="1.0" encoding="UTF-8"?>
<svg id="_图层_1" data-name="图层 1" xmlns="http://www.w3.org/2000/svg" viewBox="0 0 238.11 53.86">
  <defs>
    <style>
      .cls-1 {
        fill: #fff;
      }

      .cls-2 {
        fill: #3971b8;
      }

      .cls-2, .cls-3, .cls-4, .cls-5 {
        opacity: .1;
      }

      .cls-3 {
        stroke: #e83518;
        stroke-linejoin: round;
      }

      .cls-3, .cls-6, .cls-7 {
        fill: none;
        stroke-width: .5px;
      }

      .cls-4 {
        fill: #45b8ea;
      }

      .cls-8 {
        letter-spacing: .01em;
      }

      .cls-9 {
        fill: #005aab;
      }

      .cls-10 {
        letter-spacing: 0em;
      }

      .cls-6 {
        stroke: #fff;
      }

      .cls-6, .cls-7 {
        stroke-miterlimit: 10;
      }

      .cls-11 {
        font-family: SourceHanSansSC-Regular-GBpc-EUC-H, 'Source Han Sans SC';
        font-size: 16px;
      }

      .cls-11, .cls-12 {
        fill: #231815;
      }

      .cls-12 {
        font-family: SourceHanSansSC-Light-GBpc-EUC-H, 'Source Han Sans SC';
        font-size: 8px;
        font-weight: 300;
      }

      .cls-7 {
        stroke: #231815;
      }

      .cls-13 {
        letter-spacing: -.03em;
      }

      .cls-14 {
        letter-spacing: -.01em;
      }
    </style>
  </defs>
  <rect class="cls-1" x="-87.87" y="-303.31" width="413.86" height="634.96"/>
  <path class="cls-2" d="m240.94-85.96s-73.3-3.26-111.36-1.94c-46.78,1.62-132.42,10.86-132.42,10.86v377.26h243.78V-85.96Z"/>
  <path class="cls-4" d="m240.94-71.96s-59.71-3.67-111.4-2.36C71.07-72.84-2.83-59.04-2.83-59.04v359.26h243.78V-71.96Z"/>
  <g>
    <path class="cls-6" d="m-3.92,78.38c21.86-4.32,68.58-11.45,90.4-14.71s58.66-8.59,84.71-11.07"/>
    <path class="cls-6" d="m-3.91,71.46c21.83-4.36,68.61-11.56,90.42-14.85,21.81-3.29,58.65-8.62,84.68-11.11"/>
    <path class="cls-6" d="m-3.9,64.54c21.81-4.39,68.63-11.68,90.44-14.99,21.81-3.31,58.63-8.66,84.65-11.16"/>
    <path class="cls-6" d="m-3.89,57.62c21.79-4.43,68.65-11.8,90.46-15.13s58.62-8.69,84.62-11.2"/>
    <path class="cls-6" d="m-3.89,50.69c21.77-4.47,68.67-11.91,90.47-15.27,21.8-3.36,58.61-8.72,84.59-11.24"/>
    <path class="cls-6" d="m-3.88,43.77c21.75-4.5,68.69-12.03,90.49-15.41,21.8-3.39,58.6-8.76,84.57-11.28"/>
    <path class="cls-6" d="m-3.87,36.85c21.73-4.54,68.72-12.14,90.51-15.55s58.59-8.79,84.54-11.32"/>
    <path class="cls-6" d="m-3.87,29.92c21.7-4.57,68.74-12.26,90.53-15.69,21.79-3.44,58.58-8.83,84.51-11.37"/>
    <path class="cls-6" d="m-3.86,23c21.68-4.61,68.76-12.37,90.55-15.83,21.79-3.46,58.56-8.86,84.48-11.41"/>
    <path class="cls-6" d="m-3.85,16.08C17.81,11.43,64.93,3.59,86.72.1c21.78-3.48,58.55-8.89,84.46-11.45"/>
    <path class="cls-6" d="m-3.84,9.15C17.79,4.47,64.96-3.45,86.74-6.96c21.78-3.51,58.54-8.93,84.43-11.49"/>
    <path class="cls-6" d="m-3.84,2.23C17.78-2.49,64.99-10.49,86.77-14.02c21.78-3.53,58.53-8.96,84.4-11.54"/>
  </g>
  <line class="cls-3" x1="238.11" y1="0" x2="0" y2="0"/>
  <line class="cls-3" x1="238.11" y1="53.86" x2="0" y2="53.86"/>
  <g class="cls-5">
    <path class="cls-9" d="m238.11-294.8v1.42h8.5l7.09,5.67,22.68,5.67v29.76l-30.9,6.24-7.37,3.69v1.42h52.44v1.42h0c14.09,0,25.51,11.42,25.51,25.51V-26.93c0,14.09-11.42,25.51-25.51,25.51h0V0h-52.44v1.42l7.37,3.69,30.9,6.24v29.76l-22.68,5.67-7.09,5.67h-8.5v242.36l-4.96,19.84c-1.25,5-5.74,8.51-10.9,8.51H7.09L0,294.8h-52.44v-1.42h0c-14.09,0-25.51-11.42-25.51-25.51V80.79c0-14.09,11.42-25.51,25.51-25.51h0v-1.42H0v-1.42l-7.37-3.69-30.9-6.24V12.76L-15.59,7.09-8.5,1.42H0v-243.78h-8.5l-7.09-5.67-22.68-5.67v-29.76l30.9-6.24L0-293.39v-1.42h238.11m0-1H0c-.55,0-1,.45-1,1v.8l-6.7,3.35-30.77,6.21c-.47.09-.8.5-.8.98v29.76c0,.46.31.86.76.97l22.47,5.62,6.92,5.53c.18.14.4.22.62.22H-1V.42h-7.5c-.23,0-.45.08-.62.22l-6.92,5.53-22.47,5.62c-.45.11-.76.51-.76.97v29.76c0,.48.34.89.8.98l30.77,6.21,6.3,3.15h-51.04c-.55,0-1,.45-1,1v.44c-14.16.53-25.51,12.21-25.51,26.49v187.09c0,14.28,11.35,25.97,25.51,26.49v.44c0,.55.45,1,1,1H-.78l6.9,27.59c.11.45.51.76.97.76h215.17c5.62,0,10.5-3.81,11.87-9.27l4.96-19.84c.02-.08.03-.16.03-.24V53.44h7.5c.23,0,.45-.08.62-.22l6.92-5.53,22.47-5.62c.45-.11.76-.51.76-.97V11.34c0-.48-.34-.89-.8-.98l-30.77-6.21-6.3-3.15h51.04c.55,0,1-.45,1-1v-.44c14.16-.53,25.51-12.21,25.51-26.49v-187.09c0-14.28-11.35-25.97-25.51-26.49v-.44c0-.55-.45-1-1-1h-51.04l6.3-3.15,30.77-6.21c.47-.09.8-.5.8-.98v-29.76c0-.46-.31-.86-.76-.97l-22.47-5.62-6.92-5.53c-.18-.14-.4-.22-.62-.22h-7.5v-.42c0-.55-.45-1-1-1h0Z"/>
  </g>
  <line class="cls-7" x1="171.25" y1="-301.44" x2="171.25" y2="331.24"/>
  <text class="cls-11" transform="translate(7.54 35.46)"><tspan x="0" y="0">A</tspan><tspan class="cls-14" x="9.73" y="0">r</tspan><tspan x="15.76" y="0">ch®️ GN</tspan><tspan class="cls-13" x="67.38" y="0">U</tspan><tspan class="cls-10" x="78.35" y="0">/Linu</tspan><tspan class="cls-8" x="117.18" y="0">x™</tspan><tspan x="125.31" y="0">️</tspan></text>
  <text class="cls-12" transform="translate(175.56 31.48)"><tspan x="0" y="0">— Flash drive</tspan><tspan x="0" y="13">— amd64</tspan></text>
</svg>