<?xml version="1.0" encoding="UTF-8"?>
<svg id="_图层_1" data-name="图层 1" xmlns="http://www.w3.org/2000/svg" viewBox="0 0 52.44 240.94">
  <defs>
    <style>
      .cls-1 {
        fill: #fff;
      }

      .cls-2 {
        fill: #3971b8;
      }

      .cls-2, .cls-3, .cls-4, .cls-5, .cls-6 {
        opacity: .1;
      }

      .cls-3, .cls-7, .cls-6 {
        stroke-width: .5px;
      }

      .cls-3, .cls-7, .cls-6, .cls-8 {
        fill: none;
      }

      .cls-3, .cls-6, .cls-8 {
        stroke: #e83518;
        stroke-linejoin: round;
      }

      .cls-4 {
        fill: #45b8ea;
      }

      .cls-9 {
        fill: #231815;
      }

      .cls-9, .cls-10 {
        font-family: SourceHanSansSC-Light-GBpc-EUC-H, 'Source Han Sans SC';
        font-size: 7px;
        font-weight: 300;
      }

      .cls-11 {
        fill: #005aab;
      }

      .cls-12 {
        letter-spacing: .6em;
      }

      .cls-13 {
        letter-spacing: .59em;
      }

      .cls-7 {
        stroke: #fff;
        stroke-miterlimit: 10;
      }

      .cls-10 {
        fill: #666464;
      }

      .cls-6 {
        stroke-dasharray: 0 0 0 0 0 0 0 8 1 8 4 0;
      }
    </style>
  </defs>
  <rect class="cls-1" x="-35.43" y="-357.17" width="413.86" height="634.96"/>
  <path class="cls-2" d="m293.39-139.82s-73.3-3.26-111.36-1.94c-46.78,1.62-132.42,10.86-132.42,10.86V246.36h243.78V-139.82Z"/>
  <path class="cls-4" d="m293.39-125.82s-59.71-3.67-111.4-2.36c-58.47,1.48-132.37,15.28-132.37,15.28V246.36h243.78V-125.82Z"/>
  <g>
    <path class="cls-7" d="m48.28,252.99c22.57-3.14,67.85-7.63,89.78-10.08,21.93-2.45,59.04-7.48,85.63-9.68"/>
    <path class="cls-7" d="m48.29,246.06c22.55-3.17,67.87-7.75,89.8-10.22,21.93-2.47,59.03-7.52,85.6-9.72"/>
    <path class="cls-7" d="m48.3,239.14c22.53-3.21,67.89-7.86,89.82-10.36,21.93-2.5,59.02-7.55,85.57-9.76"/>
    <path class="cls-7" d="m48.31,232.22c22.51-3.24,67.92-7.98,89.84-10.5,21.92-2.52,59.01-7.58,85.54-9.8"/>
    <path class="cls-7" d="m48.31,225.29c22.48-3.28,67.94-8.09,89.86-10.64,21.92-2.55,58.99-7.62,85.51-9.85"/>
    <path class="cls-7" d="m48.32,218.37c22.46-3.32,67.96-8.21,89.88-10.78,21.91-2.57,58.98-7.65,85.49-9.89"/>
    <path class="cls-7" d="m48.33,211.45c22.44-3.35,67.98-8.32,89.89-10.92,21.91-2.59,58.97-7.68,85.46-9.93"/>
    <path class="cls-7" d="m48.34,204.52c22.42-3.39,68-8.44,89.91-11.06,21.91-2.62,58.96-7.72,85.43-9.97"/>
    <path class="cls-7" d="m48.34,197.6c22.4-3.42,68.03-8.56,89.93-11.2,21.9-2.64,58.95-7.75,85.4-10.01"/>
    <path class="cls-7" d="m48.35,190.68c22.38-3.46,68.05-8.67,89.95-11.34,21.9-2.67,58.94-7.79,85.37-10.06"/>
    <path class="cls-7" d="m48.36,183.76c22.35-3.5,68.07-8.79,89.97-11.48,21.9-2.69,58.92-7.82,85.35-10.1"/>
    <path class="cls-7" d="m48.36,176.83c22.33-3.53,68.09-8.9,89.99-11.62,21.89-2.72,58.91-7.85,85.32-10.14"/>
    <path class="cls-7" d="m48.37,169.91c22.31-3.57,68.12-9.02,90.01-11.76s58.9-7.89,85.29-10.18"/>
    <path class="cls-7" d="m48.38,162.99c22.29-3.6,68.14-9.13,90.02-11.9,21.89-2.77,58.89-7.92,85.26-10.23"/>
    <path class="cls-7" d="m48.39,156.06c22.27-3.64,68.16-9.25,90.04-12.04,21.88-2.79,58.88-7.95,85.24-10.27"/>
    <path class="cls-7" d="m48.39,149.14c22.25-3.68,68.18-9.37,90.06-12.18,21.88-2.82,58.87-7.99,85.21-10.31"/>
    <path class="cls-7" d="m48.4,142.22c22.22-3.71,68.21-9.48,90.08-12.32,21.88-2.84,58.85-8.02,85.18-10.35"/>
    <path class="cls-7" d="m48.41,135.29c22.2-3.75,68.23-9.6,90.1-12.46,21.87-2.87,58.84-8.05,85.15-10.39"/>
    <path class="cls-7" d="m48.42,128.37c22.18-3.78,68.25-9.71,90.12-12.6s58.83-8.09,85.12-10.44"/>
    <path class="cls-7" d="m48.42,121.45c22.16-3.82,68.27-9.83,90.14-12.74,21.87-2.92,58.82-8.12,85.1-10.48"/>
    <path class="cls-7" d="m48.43,114.53c22.14-3.85,68.29-9.94,90.16-12.89,21.86-2.94,58.81-8.15,85.07-10.52"/>
    <path class="cls-7" d="m48.44,107.6c22.12-3.89,68.32-10.06,90.17-13.03,21.86-2.97,58.8-8.19,85.04-10.56"/>
    <path class="cls-7" d="m48.44,100.68c22.09-3.93,68.34-10.18,90.19-13.17,21.85-2.99,58.79-8.22,85.01-10.61"/>
    <path class="cls-7" d="m48.45,93.76c22.07-3.96,68.36-10.29,90.21-13.31,21.85-3.02,58.77-8.25,84.98-10.65"/>
    <path class="cls-7" d="m48.46,86.83c22.05-4,68.38-10.41,90.23-13.45,21.85-3.04,58.76-8.29,84.96-10.69"/>
    <path class="cls-7" d="m48.47,79.91c22.03-4.03,68.41-10.52,90.25-13.59,21.84-3.06,58.75-8.32,84.93-10.73"/>
    <path class="cls-7" d="m48.47,72.99c22.01-4.07,68.43-10.64,90.27-13.73,21.84-3.09,58.74-8.36,84.9-10.78"/>
    <path class="cls-7" d="m48.48,66.06c21.99-4.11,68.45-10.75,90.29-13.87,21.84-3.11,58.73-8.39,84.87-10.82"/>
    <path class="cls-7" d="m48.49,59.14c21.96-4.14,68.47-10.87,90.31-14.01,21.83-3.14,58.72-8.42,84.85-10.86"/>
    <path class="cls-7" d="m48.5,52.22c21.94-4.18,68.49-10.99,90.32-14.15s58.7-8.46,84.82-10.9"/>
    <path class="cls-7" d="m48.5,45.3c21.92-4.21,68.52-11.1,90.34-14.29,21.83-3.19,58.69-8.49,84.79-10.94"/>
    <path class="cls-7" d="m48.51,38.37c21.9-4.25,68.54-11.22,90.36-14.43s58.68-8.52,84.76-10.99"/>
    <path class="cls-7" d="m48.52,31.45c21.88-4.29,68.56-11.33,90.38-14.57,21.82-3.24,58.67-8.56,84.73-11.03"/>
    <path class="cls-7" d="m48.52,24.53c21.86-4.32,68.58-11.45,90.4-14.71S197.58,1.22,223.63-1.26"/>
    <path class="cls-7" d="m48.53,17.6c21.83-4.36,68.61-11.56,90.42-14.85,21.81-3.29,58.65-8.62,84.68-11.11"/>
    <path class="cls-7" d="m48.54,10.68C70.35,6.29,117.17-1,138.98-4.31c21.81-3.31,58.63-8.66,84.65-11.16"/>
    <path class="cls-7" d="m48.55,3.76c21.79-4.43,68.65-11.8,90.46-15.13s58.62-8.69,84.62-11.2"/>
  </g>
  <text class="cls-10" transform="translate(34.02 89.15) rotate(90)"><tspan class="cls-13" x="0" y="0">r</tspan><tspan class="cls-12" x="6.64" y="0">olling</tspan><tspan class="cls-12"><tspan x="0" y="10">2025-04-01</tspan></tspan><tspan class="cls-12"><tspan x="0" y="20">2030-04</tspan></tspan></text>
  <g class="cls-5">
    <polyline class="cls-8" points="-.5 239.53 -.5 223.94 5.67 223.94"/>
  </g>
  <g class="cls-5">
    <polyline class="cls-8" points="-.5 1.42 -.5 17.01 5.67 17.01"/>
  </g>
  <line class="cls-3" x1="290.55" x2="52.44"/>
  <line class="cls-3" x1="290.55" y1="240.94" x2="52.44" y2="240.94"/>
  <line class="cls-3" x1="52.44" y1="240.94" x2="52.44"/>
  <g class="cls-5">
    <path class="cls-11" d="m290.55-348.66v1.42h8.5l7.09,5.67,22.68,5.67v29.76l-30.9,6.24-7.37,3.69v1.42h52.44v1.42h0c14.09,0,25.51,11.42,25.51,25.51V-80.79c0,14.09-11.42,25.51-25.51,25.51h0v1.42h-52.44v1.42l7.37,3.69,30.9,6.24V-12.76l-22.68,5.67-7.09,5.67h-8.5v242.36l-4.96,19.84c-1.25,5-5.74,8.51-10.9,8.51H59.53l-7.09-28.35H0v-1.42H0c-14.09,0-25.51-11.42-25.51-25.51V26.93C-25.51,12.84-14.09,1.42,0,1.42H0V0h52.44v-1.42l-7.37-3.69-30.9-6.24v-29.76l22.68-5.67,7.09-5.67h8.5v-243.78h-8.5l-7.09-5.67-22.68-5.67v-29.76l30.9-6.24,7.37-3.69v-1.42h238.11m0-1H52.44c-.55,0-1,.45-1,1v.8l-6.7,3.35-30.77,6.21c-.47.09-.8.5-.8.98v29.76c0,.46.31.86.76.97l22.47,5.62,6.92,5.53c.18.14.4.22.62.22h7.5V-53.44h-7.5c-.23,0-.45.08-.62.22l-6.92,5.53-22.47,5.62c-.45.11-.76.51-.76.97V-11.34c0,.48.34.89.8.98l30.77,6.21,6.3,3.15H0C-.55-1-1-.55-1,0v.44c-14.16.53-25.51,12.21-25.51,26.49v187.09c0,14.28,11.35,25.97,25.51,26.49v.44c0,.55.45,1,1,1h51.66l6.9,27.59c.11.45.51.76.97.76h215.17c5.62,0,10.5-3.81,11.87-9.27l4.96-19.84c.02-.08.03-.16.03-.24V-.42h7.5c.23,0,.45-.08.62-.22l6.92-5.53,22.47-5.62c.45-.11.76-.51.76-.97v-29.76c0-.48-.34-.89-.8-.98l-30.77-6.21-6.3-3.15h51.04c.55,0,1-.45,1-1v-.44c14.16-.53,25.51-12.21,25.51-26.49v-187.09c0-14.28-11.35-25.97-25.51-26.49v-.44c0-.55-.45-1-1-1h-51.04l6.3-3.15,30.77-6.21c.47-.09.8-.5.8-.98v-29.76c0-.46-.31-.86-.76-.97l-22.47-5.62-6.92-5.53c-.18-.14-.4-.22-.62-.22h-7.5v-.42c0-.55-.45-1-1-1h0Z"/>
  </g>
  <text class="cls-9" transform="translate(34.02 7.51) rotate(90)"><tspan x="0" y="0">产品批号</tspan><tspan x="0" y="10">生产日期</tspan><tspan x="0" y="20">有效期至</tspan></text>
  <line class="cls-6" x1="5.67" y1="223.94" x2="5.67" y2="17.01"/>
</svg>