<?xml version="1.0" encoding="UTF-8"?>
<svg id="_图层_1" data-name="图层 1" xmlns="http://www.w3.org/2000/svg" viewBox="0 0 52.44 240.94">
  <defs>
    <style>
      .cls-1 {
        letter-spacing: 0em;
      }

      .cls-2 {
        fill: #fff;
      }

      .cls-3 {
        letter-spacing: .02em;
      }

      .cls-4 {
        fill: #3971b8;
      }

      .cls-4, .cls-5, .cls-6, .cls-7, .cls-8 {
        opacity: .1;
      }

      .cls-5, .cls-8 {
        stroke-width: .5px;
      }

      .cls-5, .cls-8, .cls-9 {
        fill: none;
        stroke: #e83518;
        stroke-linejoin: round;
      }

      .cls-6 {
        fill: #45b8ea;
      }

      .cls-10 {
        letter-spacing: -.02em;
      }

      .cls-11 {
        letter-spacing: .02em;
      }

      .cls-12 {
        letter-spacing: .03em;
      }

      .cls-13 {
        letter-spacing: .04em;
      }

      .cls-14 {
        letter-spacing: .02em;
      }

      .cls-15 {
        letter-spacing: 0em;
      }

      .cls-16 {
        fill: #005aab;
      }

      .cls-17 {
        letter-spacing: .02em;
      }

      .cls-18 {
        letter-spacing: .05em;
      }

      .cls-19 {
        letter-spacing: .03em;
      }

      .cls-20 {
        letter-spacing: -.01em;
      }

      .cls-21 {
        letter-spacing: .02em;
      }

      .cls-22 {
        letter-spacing: .02em;
      }

      .cls-23 {
        letter-spacing: .02em;
      }

      .cls-24 {
        letter-spacing: 0em;
      }

      .cls-25 {
        letter-spacing: .03em;
      }

      .cls-26 {
        letter-spacing: .05em;
      }

      .cls-27 {
        letter-spacing: .03em;
      }

      .cls-28 {
        letter-spacing: .05em;
      }

      .cls-29 {
        letter-spacing: .04em;
      }

      .cls-30 {
        letter-spacing: .04em;
      }

      .cls-8 {
        stroke-dasharray: 0 0 0 0 0 0 0 8 1 8 4 0;
      }

      .cls-31 {
        letter-spacing: .04em;
      }

      .cls-32 {
        letter-spacing: .03em;
      }

      .cls-33 {
        letter-spacing: -.24em;
      }

      .cls-34 {
        letter-spacing: .01em;
      }

      .cls-35 {
        letter-spacing: .02em;
      }

      .cls-36 {
        letter-spacing: .02em;
      }

      .cls-37 {
        letter-spacing: .02em;
      }

      .cls-38 {
        letter-spacing: 0em;
      }

      .cls-39 {
        letter-spacing: .03em;
      }

      .cls-40 {
        fill: #231815;
        font-family: SourceHanSansSC-Regular-GBpc-EUC-H, 'Source Han Sans SC';
        font-size: 6px;
      }
    </style>
  </defs>
  <rect class="cls-2" x="-325.98" y="-62.36" width="413.86" height="634.96"/>
  <path class="cls-4" d="m2.83,154.98s-73.3-3.26-111.36-1.94c-46.78,1.62-132.42,10.86-132.42,10.86v377.26H2.83V154.98Z"/>
  <path class="cls-6" d="m2.83,168.98s-59.71-3.67-111.4-2.36c-58.47,1.48-132.37,15.28-132.37,15.28v359.26H2.83V168.98Z"/>
  <g class="cls-7">
    <polyline class="cls-9" points="52.94 1.42 52.94 17.01 46.77 17.01"/>
  </g>
  <g class="cls-7">
    <polyline class="cls-9" points="52.94 239.53 52.94 223.94 46.77 223.94"/>
  </g>
  <line class="cls-5" x1="0" y1="0" x2="-238.11" y2="0"/>
  <line class="cls-5" x1="0" y1="240.94" x2="-238.11" y2="240.94"/>
  <line class="cls-5" y1="240.94" x2="0" y2="0"/>
  <g class="cls-7">
    <path class="cls-16" d="m0-53.86v1.42h8.5l7.09,5.67,22.68,5.67V-11.34L7.37-5.1,0-1.42V0h52.44v1.42h0c14.09,0,25.51,11.42,25.51,25.51v187.09c0,14.09-11.42,25.51-25.51,25.51h0v1.42H0v1.42l7.37,3.69,30.9,6.24v29.76l-22.68,5.67-7.09,5.67H0v242.36l-4.96,19.84c-1.25,5-5.74,8.51-10.9,8.51h-215.17l-7.09-28.35h-52.44v-1.42h0c-14.09,0-25.51-11.42-25.51-25.51v-187.09c0-14.09,11.42-25.51,25.51-25.51h0v-1.42h52.44v-1.42l-7.37-3.69-30.9-6.24v-29.76l22.68-5.67,7.09-5.67h8.5V-1.42h-8.5l-7.09-5.67-22.68-5.67v-29.76l30.9-6.24,7.37-3.69v-1.42H0M0-54.86h-238.11c-.55,0-1,.45-1,1v.8l-6.7,3.35-30.77,6.21c-.47.09-.8.5-.8.98V-12.76c0,.46.31.86.76.97l22.47,5.62,6.92,5.53c.18.14.4.22.62.22h7.5v241.78h-7.5c-.23,0-.45.08-.62.22l-6.92,5.53-22.47,5.62c-.45.11-.76.51-.76.97v29.76c0,.48.34.89.8.98l30.77,6.21,6.3,3.15h-51.04c-.55,0-1,.45-1,1v.44c-14.16.53-25.51,12.21-25.51,26.49v187.09c0,14.28,11.35,25.97,25.51,26.49v.44c0,.55.45,1,1,1h51.66l6.9,27.59c.11.45.51.76.97.76H-15.86c5.62,0,10.5-3.81,11.87-9.27l4.96-19.84c.02-.08.03-.16.03-.24v-241.36h7.5c.23,0,.45-.08.62-.22l6.92-5.53,22.47-5.62c.45-.11.76-.51.76-.97v-29.76c0-.48-.34-.89-.8-.98l-30.77-6.21-6.3-3.15h51.04c.55,0,1-.45,1-1v-.44c14.16-.53,25.51-12.21,25.51-26.49V26.93c0-14.28-11.35-25.97-25.51-26.49V0c0-.55-.45-1-1-1H1.4l6.3-3.15,30.77-6.21c.47-.09.8-.5.8-.98v-29.76c0-.46-.31-.86-.76-.97l-22.47-5.62-6.92-5.53c-.18-.14-.4-.22-.62-.22H1v-.42c0-.55-.45-1-1-1H0Z"/>
  </g>
  <text class="cls-40" transform="translate(19.6 214.84) rotate(-90)"><tspan class="cls-34" x="0" y="0">码</tspan><tspan class="cls-18" x="6.08" y="0">上</tspan><tspan class="cls-1" x="12.37" y="0">放</tspan><tspan x="18.41" y="0">心 · </tspan><tspan class="cls-36" x="33.09" y="0">S</tspan><tspan class="cls-27" x="36.78" y="0">H</tspan><tspan class="cls-30" x="41.36" y="0">A</tspan><tspan class="cls-20" x="45.24" y="0">-</tspan><tspan class="cls-28" x="47.24" y="0">2</tspan><tspan class="cls-19" x="50.85" y="0">5</tspan><tspan class="cls-13" x="54.37" y="0">6</tspan><tspan x="57.95" y="0">码</tspan><tspan class="cls-21" x="-10.3" y="11">网</tspan><tspan class="cls-32" x="-4.16" y="11">站</tspan><tspan class="cls-31" x="2.05" y="11">查</tspan><tspan class="cls-10" x="8.31" y="11">询</tspan><tspan class="cls-33" x="14.16" y="11">：</tspan><tspan class="cls-26" x="18.73" y="11">ww</tspan><tspan class="cls-15" x="28.98" y="11">w</tspan><tspan class="cls-12" x="33.78" y="11">.</tspan><tspan class="cls-17" x="35.61" y="11">a</tspan><tspan class="cls-14" x="39.12" y="11">r</tspan><tspan class="cls-23" x="41.58" y="11">c</tspan><tspan class="cls-22" x="44.76" y="11">h</tspan><tspan class="cls-35" x="48.53" y="11">l</tspan><tspan class="cls-37" x="50.33" y="11">i</tspan><tspan class="cls-3" x="52.08" y="11">n</tspan><tspan class="cls-39" x="55.86" y="11">u</tspan><tspan class="cls-29" x="59.67" y="11">x</tspan><tspan class="cls-38" x="62.87" y="11">.</tspan><tspan class="cls-11" x="64.6" y="11">o</tspan><tspan class="cls-25" x="68.37" y="11">r</tspan><tspan class="cls-24" x="70.87" y="11">g</tspan></text>
  <line class="cls-8" x1="46.77" y1="223.94" x2="46.77" y2="17.01"/>
</svg>